<?xml version="1.0" encoding="UTF-8" standalone="no"?>
<!DOCTYPE svg PUBLIC "-//W3C//DTD SVG 1.1//EN" "http://www.w3.org/Graphics/SVG/1.1/DTD/svg11.dtd">
<!-- Created with Vectornator (http://vectornator.io/) -->
<svg height="100%" stroke-miterlimit="10" style="fill-rule:nonzero;clip-rule:evenodd;stroke-linecap:round;stroke-linejoin:round;" version="1.1" viewBox="0 0 64 64" width="100%" xml:space="preserve" xmlns="http://www.w3.org/2000/svg" xmlns:vectornator="http://vectornator.io" xmlns:xlink="http://www.w3.org/1999/xlink">
<defs/>
<clipPath id="ArtboardFrame">
<rect height="64" width="64" x="0" y="0"/>
</clipPath>
<g clip-path="url(#ArtboardFrame)" id="Untitled" vectornator:layerName="Untitled">
<g opacity="1" vectornator:layerName="g">
<g opacity="1" vectornator:layerName="g">
<path d="M32 17.998C24.268 17.998 18 24.266 18 31.998C18 39.73 24.268 45.998 32 45.998C39.732 45.998 46 39.73 46 31.998C46 24.266 39.732 17.998 32 17.998ZM32 43.998C25.373 43.998 20 38.625 20 31.998C20 25.371 25.373 19.998 32 19.998C38.627 19.998 44 25.371 44 31.998C44 38.625 38.627 43.998 32 43.998Z" fill="#000000" fill-rule="nonzero" opacity="1" stroke="none" vectornator:layerName="path"/>
<path d="M32 27.998C29.791 27.998 28 29.789 28 31.998C28 34.207 29.791 35.998 32 35.998C34.209 35.998 36 34.207 36 31.998C36 29.789 34.209 27.998 32 27.998ZM32 33.998C30.896 33.998 30 33.102 30 31.998C30 30.894 30.896 29.998 32 29.998C33.104 29.998 34 30.894 34 31.998C34 33.102 33.104 33.998 32 33.998Z" fill="#000000" fill-rule="nonzero" opacity="1" stroke="none" vectornator:layerName="path"/>
<path d="M60 23.998L54.629 23.998C54.346 23.195 54.024 22.411 53.659 21.65L57.457 17.853C59.018 16.291 59.016 13.757 57.455 12.195L51.797 6.539C50.236 4.978 47.703 4.977 46.142 6.539L42.344 10.337C41.584 9.974 40.801 9.652 40 9.369L40 3.996C39.999 1.787 38.207-0.003 35.998-0.004L27.998-0.003C25.79-0.003 23.998 1.787 23.998 3.996L23.998 9.37C23.197 9.653 22.414 9.974 21.654 10.338L17.857 6.541C16.295 4.979 13.762 4.98 12.2 6.542L6.543 12.199C4.981 13.761 4.981 16.293 6.543 17.855L10.34 21.652C9.977 22.412 9.654 23.196 9.371 23.998L4 23.998C1.791 23.998 0 25.789 0 27.998L0 35.998C0 38.207 1.791 39.998 4 39.998L9.371 39.998C9.654 40.801 9.976 41.585 10.341 42.346L6.543 46.143C4.982 47.705 4.984 50.239 6.545 51.801L12.203 57.457C13.764 59.018 16.297 59.019 17.858 57.457L21.656 53.659C22.416 54.022 23.199 54.344 24 54.627L24 60C24.001 62.209 25.793 63.999 28.002 64L36.002 63.999C38.21 63.999 40.002 62.209 40.002 60L40.002 54.626C40.803 54.343 41.586 54.022 42.346 53.658L46.143 57.455C47.705 59.017 50.239 59.016 51.8 57.454L57.457 51.797C59.019 50.235 59.019 47.703 57.457 46.141L53.66 42.344C54.023 41.584 54.346 40.8 54.629 39.998L60 39.998C62.209 39.998 64 38.207 64 35.998L64 27.998C64 25.789 62.209 23.998 60 23.998ZM62 35.998C62 37.102 61.104 37.998 60 37.998C60 37.998 54.875 37.998 54 37.998C53.125 37.998 52.965 38.675 52.853 39.008C52.741 39.342 52.622 39.672 52.494 39.998C52.385 40.279 52.27 40.557 52.149 40.832C52.015 41.138 51.875 41.439 51.727 41.736C51.563 42.068 51.197 42.708 52.001 43.512C52.805 44.316 56.043 47.554 56.043 47.554C56.823 48.335 56.824 49.601 56.043 50.382L50.386 56.039C49.605 56.82 48.338 56.82 47.557 56.04C47.557 56.04 44.374 52.857 43.492 51.975C42.61 51.093 42.15 51.519 41.858 51.665C41.522 51.833 41.18 51.993 40.835 52.145C40.561 52.266 40.283 52.379 40.003 52.489C39.693 52.61 39.381 52.724 39.065 52.831C38.714 52.951 38 52.998 38 53.998C38 54.998 38.002 60 38.002 60C38.001 61.104 37.107 62 36.002 62L28.002 62C26.897 61.999 26.001 61.104 26 60C26 60 26 54.982 26 53.998C26 53.014 25.407 52.988 25.114 52.893C24.738 52.768 24.367 52.635 24 52.492C23.72 52.383 23.442 52.269 23.168 52.148C22.845 52.006 22.525 51.857 22.211 51.7C21.896 51.544 21.322 51.165 20.471 52.016C19.62 52.867 16.445 56.043 16.445 56.043C15.665 56.822 14.399 56.824 13.617 56.043L7.96 50.387C7.179 49.604 7.179 48.338 7.958 47.557C7.958 47.557 11.259 44.256 12.001 43.514C12.743 42.772 12.489 42.164 12.346 41.881C12.173 41.537 12.009 41.188 11.854 40.834C11.733 40.559 11.619 40.279 11.508 39.998C11.38 39.672 11.261 39.342 11.149 39.008C11.037 38.675 10.877 37.998 10.002 37.998C9.127 37.998 4.002 37.998 4.002 37.998C2.898 37.998 2.002 37.102 2.002 35.998L2.002 27.998C2.002 26.894 2.898 25.998 4.002 25.998C4.002 25.998 9.127 25.998 10.002 25.998C10.877 25.998 11.037 25.321 11.149 24.988C11.261 24.654 11.38 24.324 11.508 23.998C11.617 23.717 11.732 23.439 11.853 23.164C11.987 22.858 12.127 22.557 12.275 22.26C12.439 21.928 12.805 21.288 12.001 20.484C11.197 19.68 7.959 16.442 7.959 16.442C7.179 15.661 7.178 14.395 7.959 13.614L13.616 7.957C14.397 7.176 15.664 7.176 16.445 7.956C16.445 7.956 19.628 11.139 20.51 12.021C21.392 12.903 21.852 12.477 22.144 12.331C22.48 12.163 22.822 12.003 23.167 11.851C23.441 11.73 23.719 11.617 23.999 11.507C24.309 11.386 24.621 11.272 24.937 11.165C25.286 11.045 26 10.998 26 9.998C26 8.998 25.998 3.996 25.998 3.996C25.999 2.892 26.893 1.996 27.998 1.996L35.998 1.996C37.103 1.997 37.999 2.892 38 3.996C38 3.996 38 9.014 38 9.998C38 10.982 38.593 11.008 38.886 11.103C39.262 11.228 39.633 11.361 40 11.504C40.28 11.613 40.558 11.727 40.832 11.848C41.155 11.99 41.475 12.139 41.789 12.296C42.104 12.452 42.678 12.831 43.529 11.98C44.38 11.129 47.555 7.953 47.555 7.953C48.335 7.174 49.601 7.172 50.383 7.953L56.04 13.609C56.821 14.392 56.821 15.658 56.042 16.439C56.042 16.439 52.741 19.74 51.999 20.482C51.257 21.224 51.511 21.832 51.654 22.115C51.827 22.459 51.991 22.808 52.146 23.162C52.267 23.437 52.381 23.717 52.492 23.998C52.62 24.324 52.739 24.654 52.851 24.988C52.963 25.321 53.123 25.998 53.998 25.998C54.873 25.998 59.998 25.998 59.998 25.998C61.102 25.998 61.998 26.894 61.998 27.998L61.998 35.998L62 35.998Z" fill="#000000" fill-rule="nonzero" opacity="1" stroke="none" vectornator:layerName="path"/>
</g>
<path d="M62 35.998L62 27.998C62 26.894 61.104 25.998 60 25.998C60 25.998 54.875 25.998 54 25.998C53.125 25.998 52.965 25.321 52.853 24.988C52.741 24.654 52.622 24.324 52.494 23.998C52.384 23.717 52.269 23.437 52.148 23.162C51.993 22.808 51.829 22.459 51.656 22.115C51.512 21.832 51.259 21.224 52.001 20.482C52.743 19.74 56.044 16.439 56.044 16.439C56.823 15.658 56.823 14.392 56.042 13.609L50.385 7.953C49.603 7.172 48.337 7.174 47.557 7.953C47.557 7.953 44.382 11.129 43.531 11.98C42.68 12.831 42.106 12.453 41.791 12.296C41.477 12.139 41.157 11.989 40.834 11.848C40.56 11.727 40.282 11.614 40.002 11.504C39.635 11.36 39.264 11.228 38.888 11.103C38.593 11.008 38 10.982 38 9.998C38 9.014 38 3.996 38 3.996C37.999 2.892 37.104 1.997 35.998 1.996L27.998 1.996C26.893 1.996 25.999 2.892 25.998 3.996C25.998 3.996 26 8.998 26 9.998C26 10.998 25.286 11.045 24.936 11.164C24.621 11.27 24.308 11.385 23.998 11.506C23.718 11.615 23.44 11.729 23.166 11.85C22.82 12.002 22.478 12.162 22.143 12.33C21.851 12.476 21.392 12.903 20.509 12.02C19.626 11.137 16.444 7.955 16.444 7.955C15.663 7.175 14.396 7.175 13.615 7.956L7.958 13.613C7.177 14.394 7.178 15.66 7.958 16.441C7.958 16.441 11.195 19.678 12 20.483C12.805 21.288 12.438 21.927 12.274 22.259C12.127 22.556 11.986 22.858 11.852 23.163C11.731 23.438 11.617 23.716 11.507 23.997C11.379 24.323 11.26 24.653 11.148 24.987C11.036 25.32 10.876 25.997 10.001 25.997C9.126 25.997 4.001 25.997 4.001 25.997C2.897 25.997 2.001 26.893 2.001 27.997L2.001 35.997C2.001 37.101 2.897 37.997 4.001 37.997C4.001 37.997 9.126 37.997 10.001 37.997C10.876 37.997 11.036 38.674 11.148 39.007C11.26 39.341 11.379 39.671 11.507 39.997C11.617 40.278 11.732 40.558 11.853 40.833C12.008 41.187 12.172 41.536 12.345 41.88C12.489 42.163 12.742 42.771 12 43.513C11.258 44.255 7.957 47.556 7.957 47.556C7.178 48.337 7.178 49.603 7.959 50.386L13.616 56.042C14.398 56.823 15.664 56.821 16.444 56.042C16.444 56.042 19.619 52.866 20.47 52.015C21.321 51.164 21.895 51.542 22.21 51.699C22.524 51.856 22.844 52.006 23.167 52.147C23.441 52.268 23.719 52.381 23.999 52.491C24.366 52.635 24.737 52.767 25.113 52.892C25.407 52.988 26 53.014 26 53.998C26 54.982 26 60 26 60C26.001 61.104 26.896 61.999 28.002 62L36.002 62C37.107 62 38.001 61.104 38.002 60C38.002 60 38 54.998 38 53.998C38 52.998 38.714 52.951 39.064 52.832C39.379 52.726 39.692 52.611 40.002 52.49C40.282 52.381 40.56 52.267 40.834 52.146C41.18 51.994 41.522 51.834 41.857 51.666C42.149 51.52 42.608 51.093 43.491 51.976C44.374 52.859 47.556 56.041 47.556 56.041C48.337 56.821 49.604 56.821 50.385 56.04L56.042 50.383C56.823 49.602 56.822 48.336 56.042 47.555C56.042 47.555 52.805 44.318 52 43.513C51.195 42.708 51.562 42.069 51.726 41.737C51.873 41.44 52.014 41.138 52.148 40.833C52.269 40.558 52.383 40.28 52.493 39.999C52.621 39.673 52.74 39.343 52.852 39.009C52.964 38.676 53.124 37.999 53.999 37.999C54.874 37.999 59.999 37.999 59.999 37.999C61.104 37.998 62 37.103 62 35.998ZM32 45.998C24.268 45.998 18 39.73 18 31.998C18 24.266 24.268 17.998 32 17.998C39.732 17.998 46 24.266 46 31.998C46 39.73 39.732 45.998 32 45.998Z" fill="#000000" fill-rule="nonzero" opacity="1" stroke="none" vectornator:layerName="path"/>
<path d="M30 31.996C30 30.8914 30.8954 29.996 32 29.996C33.1046 29.996 34 30.8914 34 31.996C34 33.1006 33.1046 33.996 32 33.996C30.8954 33.996 30 33.1006 30 31.996Z" fill="#000000" fill-rule="nonzero" opacity="1" stroke="none" vectornator:layerName="circle"/>
</g>
</g>
</svg>
